ply
format ascii 1.0
element vertex 984
property float x
property float y
property float z
property uchar red
property uchar green
property uchar blue
end_header
    0.001176 0.019216 -0.274510 255 255 255
0.001569 0.019216 -0.274510 255 255 255
0.003529 0.019216 -0.274510 255 255 255
0.003922 0.019216 -0.274510 255 255 255
0.000784 0.018824 -0.274510 255 255 255
0.001176 0.018824 -0.274510 255 255 255
0.001569 0.018824 -0.274510 255 255 255
0.003529 0.018824 -0.274510 255 255 255
0.003922 0.018824 -0.274510 255 255 255
0.004314 0.018824 -0.274510 255 255 255
0.087500 0.300000 -4.375000 255 255 255
0.000784 0.018431 -0.274510 255 255 255
0.001176 0.018431 -0.274510 255 255 255
0.075000 0.293750 -4.375000 255 255 255
0.052000 0.188000 -2.800000 255 255 255
0.093750 0.293750 -4.375000 255 255 255
0.031250 0.287500 -4.375000 255 255 255
0.075000 0.287500 -4.375000 255 255 255
0.054167 0.191667 -2.916667 255 255 255
0.053846 0.176923 -2.692308 255 255 255
0.025000 0.281250 -4.375000 255 255 255
0.031250 0.281250 -4.375000 255 255 255
0.037500 0.281250 -4.375000 255 255 255
0.075000 0.281250 -4.375000 255 255 255
0.081250 0.281250 -4.375000 255 255 255
-0.001961 0.017255 -0.274510 255 255 255
-0.001569 0.017255 -0.274510 255 255 255
-0.001176 0.017255 -0.274510 255 255 255
0.025000 0.275000 -4.375000 255 255 255
0.031250 0.275000 -4.375000 255 255 255
0.037500 0.275000 -4.375000 255 255 255
0.075000 0.275000 -4.375000 255 255 255
0.081250 0.275000 -4.375000 255 255 255
0.143750 0.275000 -4.375000 255 255 255
-0.002353 0.016863 -0.274510 255 255 255
-0.001961 0.016863 -0.274510 255 255 255
-0.001569 0.016863 -0.274510 255 255 255
-0.001176 0.016863 -0.274510 255 255 255
-0.000784 0.016863 -0.274510 255 255 255
0.025000 0.268750 -4.375000 255 255 255
0.031250 0.268750 -4.375000 255 255 255
0.037500 0.268750 -4.375000 255 255 255
0.075000 0.268750 -4.375000 255 255 255
0.008235 0.016863 -0.274510 255 255 255
0.150000 0.268750 -4.375000 255 255 255
0.156250 0.268750 -4.375000 255 255 255
-0.002745 0.016471 -0.274510 255 255 255
-0.002353 0.016471 -0.274510 253 253 253
-0.001961 0.016471 -0.274510 252 252 252
-0.001569 0.016471 -0.274510 253 253 253
-0.001176 0.016471 -0.274510 255 255 255
0.000000 0.262500 -4.375000 255 255 255
0.006250 0.262500 -4.375000 255 255 255
0.025000 0.262500 -4.375000 255 255 255
0.031250 0.262500 -4.375000 255 255 255
0.037500 0.262500 -4.375000 255 255 255
0.075000 0.262500 -4.375000 255 255 255
0.008235 0.016471 -0.274510 255 255 255
0.008627 0.016471 -0.274510 255 255 255
0.162500 0.262500 -4.375000 255 255 255
-0.003137 0.016078 -0.274510 247 247 247
-0.002745 0.016078 -0.274510 245 245 245
-0.002353 0.016078 -0.274510 239 239 239
-0.001961 0.016078 -0.274510 235 235 235
-0.001569 0.016078 -0.274510 239 239 239
-0.006250 0.256250 -4.375000 247 247 247
0.000000 0.256250 -4.375000 247 247 247
0.006250 0.256250 -4.375000 247 247 247
0.025000 0.256250 -4.375000 253 253 253
0.031250 0.256250 -4.375000 255 255 255
0.037500 0.256250 -4.375000 255 255 255
0.075000 0.256250 -4.375000 255 255 255
0.008235 0.016078 -0.274510 255 255 255
0.008627 0.016078 -0.274510 255 255 255
0.009020 0.016078 -0.274510 255 255 255
0.168750 0.256250 -4.375000 255 255 255
0.175000 0.256250 -4.375000 255 255 255
-0.003922 0.015686 -0.274510 215 215 215
-0.003529 0.015686 -0.274510 215 215 215
-0.003137 0.015686 -0.274510 215 215 215
-0.002745 0.015686 -0.274510 212 212 212
-0.002353 0.015686 -0.274510 203 203 203
-0.006250 0.250000 -4.375000 215 215 215
0.000000 0.250000 -4.375000 215 215 215
0.006250 0.250000 -4.375000 215 215 215
0.025000 0.250000 -4.375000 237 237 237
0.031250 0.250000 -4.375000 245 245 245
0.037500 0.250000 -4.375000 248 248 248
0.008627 0.015686 -0.274510 255 255 255
0.009020 0.015686 -0.274510 255 255 255
0.175000 0.250000 -4.375000 255 255 255
0.181250 0.250000 -4.375000 255 255 255
-0.004314 0.015294 -0.274510 167 167 167
-0.003922 0.015294 -0.274510 167 167 167
-0.003529 0.015294 -0.274510 167 167 167
-0.003137 0.015294 -0.274510 167 167 167
-0.006250 0.243750 -4.375000 167 167 167
0.000000 0.243750 -4.375000 167 167 167
0.006250 0.243750 -4.375000 167 167 167
0.025000 0.243750 -4.375000 200 200 200
0.031250 0.243750 -4.375000 212 212 212
0.037500 0.243750 -4.375000 217 217 217
0.187500 0.243750 -4.375000 255 255 255
-0.004706 0.014902 -0.274510 137 137 137
-0.004314 0.014902 -0.274510 135 135 135
-0.003922 0.014902 -0.274510 135 135 135
-0.003529 0.014902 -0.274510 135 135 135
-0.031250 0.237500 -4.375000 132 132 132
-0.006250 0.237500 -4.375000 135 135 135
0.000000 0.237500 -4.375000 135 135 135
0.006250 0.237500 -4.375000 135 135 135
0.025000 0.237500 -4.375000 157 157 157
0.031250 0.237500 -4.375000 165 165 165
0.037500 0.237500 -4.375000 170 170 170
0.193750 0.237500 -4.375000 255 255 255
-0.005098 0.014510 -0.274510 130 130 130
-0.004706 0.014510 -0.274510 128 128 128
-0.004314 0.014510 -0.274510 127 127 127
-0.003922 0.014510 -0.274510 127 127 127
-0.037500 0.231250 -4.375000 127 127 127
-0.031250 0.231250 -4.375000 127 127 127
-0.006250 0.231250 -4.375000 127 127 127
0.000000 0.231250 -4.375000 127 127 127
0.006250 0.231250 -4.375000 127 127 127
0.025000 0.231250 -4.375000 133 133 133
0.031250 0.231250 -4.375000 135 135 135
0.037500 0.231250 -4.375000 137 137 137
0.200000 0.231250 -4.375000 255 255 255
-0.005882 0.014118 -0.274510 127 127 127
-0.005490 0.014118 -0.274510 127 127 127
-0.005098 0.014118 -0.274510 127 127 127
-0.004706 0.014118 -0.274510 127 127 127
-0.004314 0.014118 -0.274510 127 127 127
-0.043750 0.225000 -4.375000 127 127 127
-0.037500 0.225000 -4.375000 127 127 127
-0.031250 0.225000 -4.375000 127 127 127
-0.006250 0.225000 -4.375000 127 127 127
0.000000 0.225000 -4.375000 127 127 127
0.006250 0.225000 -4.375000 127 127 127
0.025000 0.225000 -4.375000 127 127 127
0.031250 0.225000 -4.375000 127 127 127
0.037500 0.225000 -4.375000 128 128 128
0.011765 0.014118 -0.274510 255 255 255
0.200000 0.225000 -4.375000 255 255 255
0.206250 0.225000 -4.375000 255 255 255
-0.005882 0.013725 -0.274510 127 127 127
-0.005490 0.013725 -0.274510 127 127 127
-0.005098 0.013725 -0.274510 127 127 127
-0.004706 0.013725 -0.274510 127 127 127
-0.050000 0.218750 -4.375000 127 127 127
-0.043750 0.218750 -4.375000 127 127 127
-0.037500 0.218750 -4.375000 127 127 127
-0.031250 0.218750 -4.375000 127 127 127
-0.006250 0.218750 -4.375000 127 127 127
0.000000 0.218750 -4.375000 127 127 127
0.006250 0.218750 -4.375000 127 127 127
0.025000 0.218750 -4.375000 127 127 127
0.031250 0.218750 -4.375000 127 127 127
0.037500 0.218750 -4.375000 127 127 127
0.206250 0.218750 -4.375000 255 255 255
0.212500 0.218750 -4.375000 255 255 255
-0.006275 0.013333 -0.274510 127 127 127
-0.005882 0.013333 -0.274510 127 127 127
-0.005490 0.013333 -0.274510 127 127 127
-0.005098 0.013333 -0.274510 127 127 127
-0.050000 0.212500 -4.375000 127 127 127
-0.043750 0.212500 -4.375000 127 127 127
-0.037500 0.212500 -4.375000 127 127 127
-0.031250 0.212500 -4.375000 127 127 127
-0.006250 0.212500 -4.375000 127 127 127
0.000000 0.212500 -4.375000 127 127 127
0.006250 0.212500 -4.375000 127 127 127
0.012500 0.212500 -4.375000 127 127 127
0.025000 0.212500 -4.375000 127 127 127
0.031250 0.212500 -4.375000 127 127 127
0.037500 0.212500 -4.375000 127 127 127
0.012157 0.013333 -0.274510 255 255 255
0.212500 0.212500 -4.375000 255 255 255
0.218750 0.212500 -4.375000 255 255 255
-0.006667 0.012941 -0.274510 127 127 127
-0.006275 0.012941 -0.274510 127 127 127
-0.005882 0.012941 -0.274510 127 127 127
-0.005490 0.012941 -0.274510 127 127 127
-0.062500 0.206250 -4.375000 127 127 127
-0.056250 0.206250 -4.375000 127 127 127
-0.050000 0.206250 -4.375000 127 127 127
-0.043750 0.206250 -4.375000 127 127 127
-0.037500 0.206250 -4.375000 127 127 127
-0.031250 0.206250 -4.375000 127 127 127
-0.025000 0.206250 -4.375000 127 127 127
-0.012500 0.206250 -4.375000 127 127 127
-0.006250 0.206250 -4.375000 127 127 127
0.000000 0.206250 -4.375000 127 127 127
0.006250 0.206250 -4.375000 127 127 127
0.012500 0.206250 -4.375000 127 127 127
0.025000 0.206250 -4.375000 127 127 127
0.031250 0.206250 -4.375000 127 127 127
0.037500 0.206250 -4.375000 127 127 127
0.012157 0.012941 -0.274510 255 255 255
0.218750 0.206250 -4.375000 255 255 255
0.225000 0.206250 -4.375000 255 255 255
-0.007059 0.012549 -0.274510 127 127 127
-0.006667 0.012549 -0.274510 127 127 127
-0.006275 0.012549 -0.274510 127 127 127
-0.005882 0.012549 -0.274510 127 127 127
-0.005490 0.012549 -0.274510 127 127 127
-0.068750 0.200000 -4.375000 127 127 127
-0.062500 0.200000 -4.375000 127 127 127
-0.056250 0.200000 -4.375000 127 127 127
-0.050000 0.200000 -4.375000 127 127 127
-0.043750 0.200000 -4.375000 127 127 127
-0.037500 0.200000 -4.375000 127 127 127
-0.031250 0.200000 -4.375000 127 127 127
-0.025000 0.200000 -4.375000 127 127 127
-0.018750 0.200000 -4.375000 127 127 127
-0.012500 0.200000 -4.375000 127 127 127
-0.006250 0.200000 -4.375000 127 127 127
0.000000 0.200000 -4.375000 127 127 127
0.006250 0.200000 -4.375000 127 127 127
0.012500 0.200000 -4.375000 127 127 127
0.031250 0.200000 -4.375000 127 127 127
0.037500 0.200000 -4.375000 127 127 127
0.012157 0.012549 -0.274510 255 255 255
0.012549 0.012549 -0.274510 255 255 255
0.225000 0.200000 -4.375000 255 255 255
0.231250 0.200000 -4.375000 255 255 255
-0.007843 0.012157 -0.274510 127 127 127
-0.007451 0.012157 -0.274510 127 127 127
-0.007059 0.012157 -0.274510 127 127 127
-0.006667 0.012157 -0.274510 127 127 127
-0.006275 0.012157 -0.274510 127 127 127
-0.005882 0.012157 -0.274510 127 127 127
-0.075000 0.193750 -4.375000 127 127 127
-0.068750 0.193750 -4.375000 127 127 127
-0.062500 0.193750 -4.375000 127 127 127
-0.056250 0.193750 -4.375000 127 127 127
-0.050000 0.193750 -4.375000 127 127 127
-0.043750 0.193750 -4.375000 127 127 127
-0.037500 0.193750 -4.375000 127 127 127
-0.031250 0.193750 -4.375000 127 127 127
-0.025000 0.193750 -4.375000 127 127 127
-0.018750 0.193750 -4.375000 127 127 127
-0.012500 0.193750 -4.375000 127 127 127
-0.006250 0.193750 -4.375000 127 127 127
0.000000 0.193750 -4.375000 127 127 127
0.006250 0.193750 -4.375000 127 127 127
0.012500 0.193750 -4.375000 127 127 127
0.031250 0.193750 -4.375000 127 127 127
0.037500 0.193750 -4.375000 127 127 127
0.043750 0.193750 -4.375000 127 127 127
0.012157 0.012157 -0.274510 255 255 255
0.012549 0.012157 -0.274510 255 255 255
0.012941 0.012157 -0.274510 255 255 255
-0.008235 0.011765 -0.274510 127 127 127
-0.007843 0.011765 -0.274510 127 127 127
-0.007451 0.011765 -0.274510 127 127 127
-0.007059 0.011765 -0.274510 127 127 127
-0.006667 0.011765 -0.274510 127 127 127
-0.006275 0.011765 -0.274510 127 127 127
-0.005882 0.011765 -0.274510 127 127 127
-0.081250 0.187500 -4.375000 127 127 127
-0.075000 0.187500 -4.375000 127 127 127
-0.068750 0.187500 -4.375000 127 127 127
-0.062500 0.187500 -4.375000 127 127 127
-0.056250 0.187500 -4.375000 127 127 127
-0.050000 0.187500 -4.375000 127 127 127
-0.043750 0.187500 -4.375000 127 127 127
-0.037500 0.187500 -4.375000 127 127 127
-0.031250 0.187500 -4.375000 127 127 127
-0.025000 0.187500 -4.375000 127 127 127
-0.018750 0.187500 -4.375000 127 127 127
-0.012500 0.187500 -4.375000 127 127 127
-0.006250 0.187500 -4.375000 127 127 127
0.000000 0.187500 -4.375000 127 127 127
0.006250 0.187500 -4.375000 127 127 127
0.012500 0.187500 -4.375000 127 127 127
0.012157 0.011765 -0.274510 255 255 255
0.012549 0.011765 -0.274510 255 255 255
0.012941 0.011765 -0.274510 255 255 255
0.013333 0.011765 -0.274510 255 255 255
0.013725 0.011765 -0.274510 255 255 255
0.014118 0.011765 -0.274510 255 255 255
-0.008627 0.011373 -0.274510 127 127 127
-0.008235 0.011373 -0.274510 127 127 127
-0.007843 0.011373 -0.274510 127 127 127
-0.007451 0.011373 -0.274510 127 127 127
-0.007059 0.011373 -0.274510 127 127 127
-0.006667 0.011373 -0.274510 127 127 127
-0.006275 0.011373 -0.274510 127 127 127
-0.081250 0.181250 -4.375000 127 127 127
-0.075000 0.181250 -4.375000 127 127 127
-0.068750 0.181250 -4.375000 127 127 127
-0.062500 0.181250 -4.375000 127 127 127
-0.056250 0.181250 -4.375000 127 127 127
-0.050000 0.181250 -4.375000 127 127 127
-0.043750 0.181250 -4.375000 127 127 127
-0.037500 0.181250 -4.375000 127 127 127
-0.025000 0.181250 -4.375000 127 127 127
-0.018750 0.181250 -4.375000 127 127 127
-0.012500 0.181250 -4.375000 127 127 127
-0.006250 0.181250 -4.375000 127 127 127
0.000000 0.181250 -4.375000 127 127 127
0.006250 0.181250 -4.375000 127 127 127
0.012500 0.181250 -4.375000 127 127 127
0.012549 0.011373 -0.274510 255 255 255
0.012941 0.011373 -0.274510 255 255 255
0.013333 0.011373 -0.274510 255 255 255
0.013725 0.011373 -0.274510 255 255 255
0.014118 0.011373 -0.274510 255 255 255
0.014510 0.011373 -0.274510 255 255 255
0.014902 0.011373 -0.274510 255 255 255
-0.009020 0.010980 -0.274510 127 127 127
-0.008627 0.010980 -0.274510 127 127 127
-0.008235 0.010980 -0.274510 127 127 127
-0.007843 0.010980 -0.274510 127 127 127
-0.007451 0.010980 -0.274510 127 127 127
-0.007059 0.010980 -0.274510 127 127 127
-0.006667 0.010980 -0.274510 127 127 127
-0.087500 0.175000 -4.375000 127 127 127
-0.081250 0.175000 -4.375000 127 127 127
-0.075000 0.175000 -4.375000 127 127 127
-0.068750 0.175000 -4.375000 127 127 127
0.006250 0.175000 -4.375000 127 127 127
0.012500 0.175000 -4.375000 127 127 127
0.012941 0.010980 -0.274510 255 255 255
0.013333 0.010980 -0.274510 255 255 255
0.013725 0.010980 -0.274510 255 255 255
0.014118 0.010980 -0.274510 255 255 255
0.014510 0.010980 -0.274510 255 255 255
0.014902 0.010980 -0.274510 255 255 255
0.015294 0.010980 -0.274510 255 255 255
-0.009412 0.010588 -0.274510 127 127 127
-0.009020 0.010588 -0.274510 127 127 127
-0.008627 0.010588 -0.274510 127 127 127
-0.008235 0.010588 -0.274510 127 127 127
-0.007843 0.010588 -0.274510 127 127 127
-0.007451 0.010588 -0.274510 127 127 127
-0.007059 0.010588 -0.274510 127 127 127
-0.006667 0.010588 -0.274510 127 127 127
-0.093750 0.168750 -4.375000 127 127 127
-0.087500 0.168750 -4.375000 127 127 127
-0.081250 0.168750 -4.375000 127 127 127
0.013333 0.010588 -0.274510 255 255 255
0.013725 0.010588 -0.274510 255 255 255
0.014118 0.010588 -0.274510 255 255 255
0.014510 0.010588 -0.274510 255 255 255
0.014902 0.010588 -0.274510 255 255 255
0.015294 0.010588 -0.274510 255 255 255
0.015686 0.010588 -0.274510 255 255 255
-0.009804 0.010196 -0.274510 127 127 127
-0.009412 0.010196 -0.274510 127 127 127
-0.009020 0.010196 -0.274510 127 127 127
-0.008627 0.010196 -0.274510 127 127 127
-0.008235 0.010196 -0.274510 127 127 127
-0.007843 0.010196 -0.274510 127 127 127
-0.007451 0.010196 -0.274510 127 127 127
-0.007059 0.010196 -0.274510 127 127 127
-0.100000 0.162500 -4.375000 127 127 127
-0.093750 0.162500 -4.375000 127 127 127
0.013333 0.010196 -0.274510 255 255 255
0.013725 0.010196 -0.274510 255 255 255
0.014118 0.010196 -0.274510 255 255 255
0.014510 0.010196 -0.274510 255 255 255
0.014902 0.010196 -0.274510 255 255 255
0.015294 0.010196 -0.274510 255 255 255
0.015686 0.010196 -0.274510 255 255 255
-0.010196 0.009804 -0.274510 127 127 127
-0.009804 0.009804 -0.274510 127 127 127
-0.009412 0.009804 -0.274510 127 127 127
-0.009020 0.009804 -0.274510 127 127 127
-0.008627 0.009804 -0.274510 127 127 127
-0.008235 0.009804 -0.274510 127 127 127
-0.007843 0.009804 -0.274510 127 127 127
-0.007451 0.009804 -0.274510 127 127 127
-0.106250 0.156250 -4.375000 127 127 127
0.013725 0.009804 -0.274510 255 255 255
0.014118 0.009804 -0.274510 255 255 255
0.014510 0.009804 -0.274510 255 255 255
0.014902 0.009804 -0.274510 255 255 255
0.015294 0.009804 -0.274510 255 255 255
0.015686 0.009804 -0.274510 255 255 255
0.016078 0.009804 -0.274510 255 255 255
-0.010196 0.009412 -0.274510 127 127 127
-0.009804 0.009412 -0.274510 127 127 127
-0.009412 0.009412 -0.274510 127 127 127
-0.009020 0.009412 -0.274510 127 127 127
-0.008627 0.009412 -0.274510 127 127 127
-0.008235 0.009412 -0.274510 127 127 127
-0.007843 0.009412 -0.274510 127 127 127
0.014118 0.009412 -0.274510 255 255 255
0.014510 0.009412 -0.274510 255 255 255
0.014902 0.009412 -0.274510 255 255 255
0.015294 0.009412 -0.274510 255 255 255
0.015686 0.009412 -0.274510 255 255 255
0.016078 0.009412 -0.274510 255 255 255
-0.010588 0.009020 -0.274510 127 127 127
-0.010196 0.009020 -0.274510 127 127 127
-0.009804 0.009020 -0.274510 127 127 127
-0.009412 0.009020 -0.274510 127 127 127
-0.009020 0.009020 -0.274510 127 127 127
-0.008627 0.009020 -0.274510 127 127 127
-0.008235 0.009020 -0.274510 127 127 127
0.014510 0.009020 -0.274510 255 255 255
0.014902 0.009020 -0.274510 255 255 255
0.015294 0.009020 -0.274510 255 255 255
0.015686 0.009020 -0.274510 255 255 255
0.016078 0.009020 -0.274510 255 255 255
0.016471 0.009020 -0.274510 255 255 255
-0.010588 0.008627 -0.274510 127 127 127
-0.010196 0.008627 -0.274510 127 127 127
-0.009804 0.008627 -0.274510 127 127 127
-0.009412 0.008627 -0.274510 127 127 127
-0.009020 0.008627 -0.274510 127 127 127
-0.008627 0.008627 -0.274510 127 127 127
0.014902 0.008627 -0.274510 255 255 255
0.015294 0.008627 -0.274510 255 255 255
0.015686 0.008627 -0.274510 255 255 255
0.016078 0.008627 -0.274510 255 255 255
0.016471 0.008627 -0.274510 255 255 255
-0.010980 0.008235 -0.274510 127 127 127
-0.010588 0.008235 -0.274510 127 127 127
-0.010196 0.008235 -0.274510 127 127 127
-0.009804 0.008235 -0.274510 127 127 127
-0.009412 0.008235 -0.274510 127 127 127
-0.009020 0.008235 -0.274510 127 127 127
0.014902 0.008235 -0.274510 255 255 255
0.015294 0.008235 -0.274510 255 255 255
0.015686 0.008235 -0.274510 255 255 255
0.016078 0.008235 -0.274510 255 255 255
0.016471 0.008235 -0.274510 255 255 255
-0.010980 0.007843 -0.274510 127 127 127
-0.010588 0.007843 -0.274510 127 127 127
-0.010196 0.007843 -0.274510 127 127 127
-0.009804 0.007843 -0.274510 127 127 127
-0.009412 0.007843 -0.274510 127 127 127
0.015294 0.007843 -0.274510 255 255 255
0.015686 0.007843 -0.274510 255 255 255
0.016078 0.007843 -0.274510 255 255 255
0.016471 0.007843 -0.274510 255 255 255
0.016863 0.007843 -0.274510 255 255 255
-0.011373 0.007451 -0.274510 127 127 127
-0.010980 0.007451 -0.274510 127 127 127
-0.010588 0.007451 -0.274510 127 127 127
-0.010196 0.007451 -0.274510 127 127 127
-0.009804 0.007451 -0.274510 127 127 127
0.015686 0.007451 -0.274510 255 255 255
0.016078 0.007451 -0.274510 255 255 255
0.016471 0.007451 -0.274510 255 255 255
0.016863 0.007451 -0.274510 255 255 255
-0.011373 0.007059 -0.274510 127 127 127
-0.010980 0.007059 -0.274510 127 127 127
-0.010588 0.007059 -0.274510 127 127 127
-0.010196 0.007059 -0.274510 127 127 127
0.016078 0.007059 -0.274510 255 255 255
0.016471 0.007059 -0.274510 255 255 255
0.016863 0.007059 -0.274510 255 255 255
-0.011765 0.006667 -0.274510 127 127 127
-0.011373 0.006667 -0.274510 127 127 127
-0.010980 0.006667 -0.274510 127 127 127
-0.010588 0.006667 -0.274510 127 127 127
0.016078 0.006667 -0.274510 255 255 255
0.016471 0.006667 -0.274510 255 255 255
0.016863 0.006667 -0.274510 255 255 255
-0.011765 0.006275 -0.274510 127 127 127
-0.011373 0.006275 -0.274510 127 127 127
-0.010980 0.006275 -0.274510 127 127 127
0.016471 0.006275 -0.274510 255 255 255
0.016863 0.006275 -0.274510 255 255 255
0.017255 0.006275 -0.274510 255 255 255
-0.011765 0.005882 -0.274510 127 127 127
-0.011373 0.005882 -0.274510 127 127 127
-0.010980 0.005882 -0.274510 127 127 127
0.016471 0.005882 -0.274510 255 255 255
0.016863 0.005882 -0.274510 255 255 255
0.017255 0.005882 -0.274510 255 255 255
-0.012157 0.005490 -0.274510 127 127 127
-0.011765 0.005490 -0.274510 127 127 127
-0.011373 0.005490 -0.274510 127 127 127
0.016863 0.005490 -0.274510 255 255 255
0.017255 0.005490 -0.274510 255 255 255
-0.012157 0.005098 -0.274510 127 127 127
-0.011765 0.005098 -0.274510 127 127 127
0.016863 0.005098 -0.274510 255 255 255
0.017255 0.005098 -0.274510 255 255 255
-0.012157 0.004706 -0.274510 127 127 127
-0.011765 0.004706 -0.274510 127 127 127
0.017255 0.004706 -0.274510 255 255 255
-0.012157 0.004314 -0.274510 127 127 127
0.017255 0.004314 -0.274510 255 255 255
-0.012157 0.003922 -0.274510 127 127 127
-0.012549 0.003137 -0.274510 127 127 127
0.017647 0.002745 -0.274510 255 255 255
0.017647 -0.002745 -0.274510 255 255 255
-0.012549 -0.003137 -0.274510 127 127 127
-0.012157 -0.003922 -0.274510 127 127 127
-0.012157 -0.004314 -0.274510 127 127 127
0.017255 -0.004314 -0.274510 255 255 255
-0.012157 -0.004706 -0.274510 127 127 127
-0.011765 -0.004706 -0.274510 127 127 127
0.017255 -0.004706 -0.274510 255 255 255
-0.012157 -0.005098 -0.274510 127 127 127
-0.011765 -0.005098 -0.274510 127 127 127
0.016863 -0.005098 -0.274510 255 255 255
0.017255 -0.005098 -0.274510 255 255 255
-0.012157 -0.005490 -0.274510 127 127 127
-0.011765 -0.005490 -0.274510 127 127 127
-0.011373 -0.005490 -0.274510 127 127 127
0.016863 -0.005490 -0.274510 255 255 255
0.017255 -0.005490 -0.274510 255 255 255
-0.011765 -0.005882 -0.274510 127 127 127
-0.011373 -0.005882 -0.274510 127 127 127
-0.010980 -0.005882 -0.274510 127 127 127
0.016471 -0.005882 -0.274510 255 255 255
0.016863 -0.005882 -0.274510 255 255 255
0.017255 -0.005882 -0.274510 255 255 255
-0.011765 -0.006275 -0.274510 127 127 127
-0.011373 -0.006275 -0.274510 127 127 127
-0.010980 -0.006275 -0.274510 127 127 127
0.016471 -0.006275 -0.274510 255 255 255
0.016863 -0.006275 -0.274510 255 255 255
0.017255 -0.006275 -0.274510 255 255 255
-0.011765 -0.006667 -0.274510 127 127 127
-0.011373 -0.006667 -0.274510 127 127 127
-0.010980 -0.006667 -0.274510 127 127 127
-0.010588 -0.006667 -0.274510 127 127 127
0.016078 -0.006667 -0.274510 255 255 255
0.016471 -0.006667 -0.274510 255 255 255
0.016863 -0.006667 -0.274510 255 255 255
-0.011373 -0.007059 -0.274510 127 127 127
-0.010980 -0.007059 -0.274510 127 127 127
-0.010588 -0.007059 -0.274510 127 127 127
-0.010196 -0.007059 -0.274510 127 127 127
0.016078 -0.007059 -0.274510 255 255 255
0.016471 -0.007059 -0.274510 255 255 255
0.016863 -0.007059 -0.274510 255 255 255
-0.011373 -0.007451 -0.274510 127 127 127
-0.010980 -0.007451 -0.274510 127 127 127
-0.010588 -0.007451 -0.274510 127 127 127
-0.010196 -0.007451 -0.274510 127 127 127
-0.009804 -0.007451 -0.274510 127 127 127
0.015686 -0.007451 -0.274510 255 255 255
0.016078 -0.007451 -0.274510 255 255 255
0.016471 -0.007451 -0.274510 255 255 255
0.016863 -0.007451 -0.274510 255 255 255
-0.010980 -0.007843 -0.274510 127 127 127
-0.010588 -0.007843 -0.274510 127 127 127
-0.010196 -0.007843 -0.274510 127 127 127
-0.009804 -0.007843 -0.274510 127 127 127
-0.009412 -0.007843 -0.274510 127 127 127
0.015294 -0.007843 -0.274510 255 255 255
0.015686 -0.007843 -0.274510 255 255 255
0.016078 -0.007843 -0.274510 255 255 255
0.016471 -0.007843 -0.274510 255 255 255
0.016863 -0.007843 -0.274510 255 255 255
-0.010980 -0.008235 -0.274510 127 127 127
-0.010588 -0.008235 -0.274510 127 127 127
-0.010196 -0.008235 -0.274510 127 127 127
-0.009804 -0.008235 -0.274510 127 127 127
-0.009412 -0.008235 -0.274510 127 127 127
-0.009020 -0.008235 -0.274510 127 127 127
0.014902 -0.008235 -0.274510 255 255 255
0.015294 -0.008235 -0.274510 255 255 255
0.015686 -0.008235 -0.274510 255 255 255
0.016078 -0.008235 -0.274510 255 255 255
0.016471 -0.008235 -0.274510 255 255 255
-0.010588 -0.008627 -0.274510 127 127 127
-0.010196 -0.008627 -0.274510 127 127 127
-0.009804 -0.008627 -0.274510 127 127 127
-0.009412 -0.008627 -0.274510 127 127 127
-0.009020 -0.008627 -0.274510 127 127 127
-0.008627 -0.008627 -0.274510 127 127 127
0.014902 -0.008627 -0.274510 255 255 255
0.015294 -0.008627 -0.274510 255 255 255
0.015686 -0.008627 -0.274510 255 255 255
0.016078 -0.008627 -0.274510 255 255 255
0.016471 -0.008627 -0.274510 255 255 255
-0.010588 -0.009020 -0.274510 127 127 127
-0.010196 -0.009020 -0.274510 127 127 127
-0.009804 -0.009020 -0.274510 127 127 127
-0.009412 -0.009020 -0.274510 127 127 127
-0.009020 -0.009020 -0.274510 127 127 127
-0.008627 -0.009020 -0.274510 127 127 127
-0.008235 -0.009020 -0.274510 127 127 127
0.014510 -0.009020 -0.274510 255 255 255
0.014902 -0.009020 -0.274510 255 255 255
0.015294 -0.009020 -0.274510 255 255 255
0.015686 -0.009020 -0.274510 255 255 255
0.016078 -0.009020 -0.274510 255 255 255
0.016471 -0.009020 -0.274510 255 255 255
-0.010196 -0.009412 -0.274510 127 127 127
-0.009804 -0.009412 -0.274510 127 127 127
-0.009412 -0.009412 -0.274510 127 127 127
-0.009020 -0.009412 -0.274510 127 127 127
-0.008627 -0.009412 -0.274510 127 127 127
-0.008235 -0.009412 -0.274510 127 127 127
-0.007843 -0.009412 -0.274510 127 127 127
0.014118 -0.009412 -0.274510 255 255 255
0.014510 -0.009412 -0.274510 255 255 255
0.014902 -0.009412 -0.274510 255 255 255
0.015294 -0.009412 -0.274510 255 255 255
0.015686 -0.009412 -0.274510 255 255 255
0.016078 -0.009412 -0.274510 255 255 255
-0.010196 -0.009804 -0.274510 127 127 127
-0.009804 -0.009804 -0.274510 127 127 127
-0.009412 -0.009804 -0.274510 127 127 127
-0.009020 -0.009804 -0.274510 127 127 127
-0.008627 -0.009804 -0.274510 127 127 127
-0.008235 -0.009804 -0.274510 127 127 127
-0.007843 -0.009804 -0.274510 127 127 127
-0.007451 -0.009804 -0.274510 127 127 127
-0.106250 -0.156250 -4.375000 127 127 127
0.013725 -0.009804 -0.274510 255 255 255
0.014118 -0.009804 -0.274510 255 255 255
0.014510 -0.009804 -0.274510 255 255 255
0.014902 -0.009804 -0.274510 255 255 255
0.015294 -0.009804 -0.274510 255 255 255
0.015686 -0.009804 -0.274510 255 255 255
0.016078 -0.009804 -0.274510 255 255 255
-0.009804 -0.010196 -0.274510 127 127 127
-0.009412 -0.010196 -0.274510 127 127 127
-0.009020 -0.010196 -0.274510 127 127 127
-0.008627 -0.010196 -0.274510 127 127 127
-0.008235 -0.010196 -0.274510 127 127 127
-0.007843 -0.010196 -0.274510 127 127 127
-0.007451 -0.010196 -0.274510 127 127 127
-0.007059 -0.010196 -0.274510 127 127 127
-0.100000 -0.162500 -4.375000 127 127 127
-0.093750 -0.162500 -4.375000 127 127 127
0.013333 -0.010196 -0.274510 255 255 255
0.013725 -0.010196 -0.274510 255 255 255
0.014118 -0.010196 -0.274510 255 255 255
0.014510 -0.010196 -0.274510 255 255 255
0.014902 -0.010196 -0.274510 255 255 255
0.015294 -0.010196 -0.274510 255 255 255
0.015686 -0.010196 -0.274510 255 255 255
-0.009412 -0.010588 -0.274510 127 127 127
-0.009020 -0.010588 -0.274510 127 127 127
-0.008627 -0.010588 -0.274510 127 127 127
-0.008235 -0.010588 -0.274510 127 127 127
-0.007843 -0.010588 -0.274510 127 127 127
-0.007451 -0.010588 -0.274510 127 127 127
-0.007059 -0.010588 -0.274510 127 127 127
-0.006667 -0.010588 -0.274510 127 127 127
-0.093750 -0.168750 -4.375000 127 127 127
-0.087500 -0.168750 -4.375000 127 127 127
-0.081250 -0.168750 -4.375000 127 127 127
0.013333 -0.010588 -0.274510 255 255 255
0.013725 -0.010588 -0.274510 255 255 255
0.014118 -0.010588 -0.274510 255 255 255
0.014510 -0.010588 -0.274510 255 255 255
0.014902 -0.010588 -0.274510 255 255 255
0.015294 -0.010588 -0.274510 255 255 255
0.015686 -0.010588 -0.274510 255 255 255
-0.009020 -0.010980 -0.274510 127 127 127
-0.008627 -0.010980 -0.274510 127 127 127
-0.008235 -0.010980 -0.274510 127 127 127
-0.007843 -0.010980 -0.274510 127 127 127
-0.007451 -0.010980 -0.274510 127 127 127
-0.007059 -0.010980 -0.274510 127 127 127
-0.006667 -0.010980 -0.274510 127 127 127
-0.087500 -0.175000 -4.375000 127 127 127
-0.081250 -0.175000 -4.375000 127 127 127
-0.075000 -0.175000 -4.375000 127 127 127
-0.068750 -0.175000 -4.375000 127 127 127
0.006250 -0.175000 -4.375000 127 127 127
0.012500 -0.175000 -4.375000 127 127 127
0.012941 -0.010980 -0.274510 255 255 255
0.013333 -0.010980 -0.274510 255 255 255
0.013725 -0.010980 -0.274510 255 255 255
0.014118 -0.010980 -0.274510 255 255 255
0.014510 -0.010980 -0.274510 255 255 255
0.014902 -0.010980 -0.274510 255 255 255
0.015294 -0.010980 -0.274510 255 255 255
-0.008627 -0.011373 -0.274510 127 127 127
-0.008235 -0.011373 -0.274510 127 127 127
-0.007843 -0.011373 -0.274510 127 127 127
-0.007451 -0.011373 -0.274510 127 127 127
-0.007059 -0.011373 -0.274510 127 127 127
-0.006667 -0.011373 -0.274510 127 127 127
-0.006275 -0.011373 -0.274510 127 127 127
-0.081250 -0.181250 -4.375000 127 127 127
-0.075000 -0.181250 -4.375000 127 127 127
-0.068750 -0.181250 -4.375000 127 127 127
-0.062500 -0.181250 -4.375000 127 127 127
-0.056250 -0.181250 -4.375000 127 127 127
-0.050000 -0.181250 -4.375000 127 127 127
-0.043750 -0.181250 -4.375000 127 127 127
-0.037500 -0.181250 -4.375000 127 127 127
-0.025000 -0.181250 -4.375000 127 127 127
-0.018750 -0.181250 -4.375000 127 127 127
-0.012500 -0.181250 -4.375000 127 127 127
-0.006250 -0.181250 -4.375000 127 127 127
0.000000 -0.181250 -4.375000 127 127 127
0.006250 -0.181250 -4.375000 127 127 127
0.012500 -0.181250 -4.375000 127 127 127
0.012549 -0.011373 -0.274510 255 255 255
0.012941 -0.011373 -0.274510 255 255 255
0.013333 -0.011373 -0.274510 255 255 255
0.013725 -0.011373 -0.274510 255 255 255
0.014118 -0.011373 -0.274510 255 255 255
0.014510 -0.011373 -0.274510 255 255 255
0.014902 -0.011373 -0.274510 255 255 255
-0.008235 -0.011765 -0.274510 127 127 127
-0.007843 -0.011765 -0.274510 127 127 127
-0.007451 -0.011765 -0.274510 127 127 127
-0.007059 -0.011765 -0.274510 127 127 127
-0.006667 -0.011765 -0.274510 127 127 127
-0.006275 -0.011765 -0.274510 127 127 127
-0.005882 -0.011765 -0.274510 127 127 127
-0.081250 -0.187500 -4.375000 127 127 127
-0.075000 -0.187500 -4.375000 127 127 127
-0.068750 -0.187500 -4.375000 127 127 127
-0.062500 -0.187500 -4.375000 127 127 127
-0.056250 -0.187500 -4.375000 127 127 127
-0.050000 -0.187500 -4.375000 127 127 127
-0.043750 -0.187500 -4.375000 127 127 127
-0.037500 -0.187500 -4.375000 127 127 127
-0.031250 -0.187500 -4.375000 127 127 127
-0.025000 -0.187500 -4.375000 127 127 127
-0.018750 -0.187500 -4.375000 127 127 127
-0.012500 -0.187500 -4.375000 127 127 127
-0.006250 -0.187500 -4.375000 127 127 127
0.000000 -0.187500 -4.375000 127 127 127
0.006250 -0.187500 -4.375000 127 127 127
0.012500 -0.187500 -4.375000 127 127 127
0.012157 -0.011765 -0.274510 255 255 255
0.012549 -0.011765 -0.274510 255 255 255
0.012941 -0.011765 -0.274510 255 255 255
0.013333 -0.011765 -0.274510 255 255 255
0.013725 -0.011765 -0.274510 255 255 255
0.014118 -0.011765 -0.274510 255 255 255
-0.007843 -0.012157 -0.274510 127 127 127
-0.007451 -0.012157 -0.274510 127 127 127
-0.007059 -0.012157 -0.274510 127 127 127
-0.006667 -0.012157 -0.274510 127 127 127
-0.006275 -0.012157 -0.274510 127 127 127
-0.005882 -0.012157 -0.274510 127 127 127
-0.075000 -0.193750 -4.375000 127 127 127
-0.068750 -0.193750 -4.375000 127 127 127
-0.062500 -0.193750 -4.375000 127 127 127
-0.056250 -0.193750 -4.375000 127 127 127
-0.050000 -0.193750 -4.375000 127 127 127
-0.043750 -0.193750 -4.375000 127 127 127
-0.037500 -0.193750 -4.375000 127 127 127
-0.031250 -0.193750 -4.375000 127 127 127
-0.025000 -0.193750 -4.375000 127 127 127
-0.018750 -0.193750 -4.375000 127 127 127
-0.012500 -0.193750 -4.375000 127 127 127
-0.006250 -0.193750 -4.375000 127 127 127
0.000000 -0.193750 -4.375000 127 127 127
0.006250 -0.193750 -4.375000 127 127 127
0.012500 -0.193750 -4.375000 127 127 127
0.031250 -0.193750 -4.375000 127 127 127
0.037500 -0.193750 -4.375000 127 127 127
0.043750 -0.193750 -4.375000 127 127 127
0.012157 -0.012157 -0.274510 255 255 255
0.012549 -0.012157 -0.274510 255 255 255
0.012941 -0.012157 -0.274510 255 255 255
-0.007059 -0.012549 -0.274510 127 127 127
-0.006667 -0.012549 -0.274510 127 127 127
-0.006275 -0.012549 -0.274510 127 127 127
-0.005882 -0.012549 -0.274510 127 127 127
-0.005490 -0.012549 -0.274510 127 127 127
-0.068750 -0.200000 -4.375000 127 127 127
-0.062500 -0.200000 -4.375000 127 127 127
-0.056250 -0.200000 -4.375000 127 127 127
-0.050000 -0.200000 -4.375000 127 127 127
-0.043750 -0.200000 -4.375000 127 127 127
-0.037500 -0.200000 -4.375000 127 127 127
-0.031250 -0.200000 -4.375000 127 127 127
-0.025000 -0.200000 -4.375000 127 127 127
-0.018750 -0.200000 -4.375000 127 127 127
-0.012500 -0.200000 -4.375000 127 127 127
-0.006250 -0.200000 -4.375000 127 127 127
0.000000 -0.200000 -4.375000 127 127 127
0.006250 -0.200000 -4.375000 127 127 127
0.012500 -0.200000 -4.375000 127 127 127
0.031250 -0.200000 -4.375000 127 127 127
0.037500 -0.200000 -4.375000 127 127 127
0.012157 -0.012549 -0.274510 255 255 255
0.012549 -0.012549 -0.274510 255 255 255
0.225000 -0.200000 -4.375000 255 255 255
0.231250 -0.200000 -4.375000 255 255 255
-0.006667 -0.012941 -0.274510 127 127 127
-0.006275 -0.012941 -0.274510 127 127 127
-0.005882 -0.012941 -0.274510 127 127 127
-0.005490 -0.012941 -0.274510 127 127 127
-0.062500 -0.206250 -4.375000 127 127 127
-0.056250 -0.206250 -4.375000 127 127 127
-0.050000 -0.206250 -4.375000 127 127 127
-0.043750 -0.206250 -4.375000 127 127 127
-0.037500 -0.206250 -4.375000 127 127 127
-0.031250 -0.206250 -4.375000 127 127 127
-0.025000 -0.206250 -4.375000 127 127 127
-0.012500 -0.206250 -4.375000 127 127 127
-0.006250 -0.206250 -4.375000 127 127 127
0.000000 -0.206250 -4.375000 127 127 127
0.006250 -0.206250 -4.375000 127 127 127
0.012500 -0.206250 -4.375000 127 127 127
0.025000 -0.206250 -4.375000 127 127 127
0.031250 -0.206250 -4.375000 127 127 127
0.037500 -0.206250 -4.375000 127 127 127
0.012157 -0.012941 -0.274510 255 255 255
0.218750 -0.206250 -4.375000 255 255 255
0.225000 -0.206250 -4.375000 255 255 255
-0.006275 -0.013333 -0.274510 127 127 127
-0.005882 -0.013333 -0.274510 127 127 127
-0.005490 -0.013333 -0.274510 127 127 127
-0.005098 -0.013333 -0.274510 127 127 127
-0.050000 -0.212500 -4.375000 127 127 127
-0.043750 -0.212500 -4.375000 127 127 127
-0.037500 -0.212500 -4.375000 127 127 127
-0.031250 -0.212500 -4.375000 127 127 127
-0.006250 -0.212500 -4.375000 127 127 127
0.000000 -0.212500 -4.375000 127 127 127
0.006250 -0.212500 -4.375000 127 127 127
0.012500 -0.212500 -4.375000 127 127 127
0.025000 -0.212500 -4.375000 127 127 127
0.031250 -0.212500 -4.375000 127 127 127
0.037500 -0.212500 -4.375000 127 127 127
0.012157 -0.013333 -0.274510 255 255 255
0.212500 -0.212500 -4.375000 255 255 255
0.218750 -0.212500 -4.375000 255 255 255
-0.005882 -0.013725 -0.274510 127 127 127
-0.005490 -0.013725 -0.274510 127 127 127
-0.005098 -0.013725 -0.274510 127 127 127
-0.004706 -0.013725 -0.274510 127 127 127
-0.050000 -0.218750 -4.375000 127 127 127
-0.043750 -0.218750 -4.375000 127 127 127
-0.037500 -0.218750 -4.375000 127 127 127
-0.031250 -0.218750 -4.375000 127 127 127
-0.006250 -0.218750 -4.375000 127 127 127
0.000000 -0.218750 -4.375000 127 127 127
0.006250 -0.218750 -4.375000 127 127 127
0.025000 -0.218750 -4.375000 127 127 127
0.031250 -0.218750 -4.375000 127 127 127
0.037500 -0.218750 -4.375000 127 127 127
0.206250 -0.218750 -4.375000 255 255 255
0.212500 -0.218750 -4.375000 255 255 255
-0.005882 -0.014118 -0.274510 127 127 127
-0.005490 -0.014118 -0.274510 127 127 127
-0.005098 -0.014118 -0.274510 127 127 127
-0.004706 -0.014118 -0.274510 127 127 127
-0.004314 -0.014118 -0.274510 127 127 127
-0.043750 -0.225000 -4.375000 127 127 127
-0.037500 -0.225000 -4.375000 127 127 127
-0.031250 -0.225000 -4.375000 127 127 127
-0.006250 -0.225000 -4.375000 127 127 127
0.000000 -0.225000 -4.375000 127 127 127
0.006250 -0.225000 -4.375000 127 127 127
0.025000 -0.225000 -4.375000 127 127 127
0.031250 -0.225000 -4.375000 127 127 127
0.037500 -0.225000 -4.375000 128 128 128
0.011765 -0.014118 -0.274510 255 255 255
0.200000 -0.225000 -4.375000 255 255 255
0.206250 -0.225000 -4.375000 255 255 255
-0.005098 -0.014510 -0.274510 130 130 130
-0.004706 -0.014510 -0.274510 128 128 128
-0.004314 -0.014510 -0.274510 127 127 127
-0.003922 -0.014510 -0.274510 127 127 127
-0.037500 -0.231250 -4.375000 127 127 127
-0.031250 -0.231250 -4.375000 127 127 127
-0.006250 -0.231250 -4.375000 127 127 127
0.000000 -0.231250 -4.375000 127 127 127
0.006250 -0.231250 -4.375000 127 127 127
0.025000 -0.231250 -4.375000 133 133 133
0.031250 -0.231250 -4.375000 135 135 135
0.037500 -0.231250 -4.375000 137 137 137
0.200000 -0.231250 -4.375000 255 255 255
-0.004706 -0.014902 -0.274510 137 137 137
-0.004314 -0.014902 -0.274510 135 135 135
-0.003922 -0.014902 -0.274510 135 135 135
-0.003529 -0.014902 -0.274510 135 135 135
-0.031250 -0.237500 -4.375000 132 132 132
-0.006250 -0.237500 -4.375000 135 135 135
0.000000 -0.237500 -4.375000 135 135 135
0.006250 -0.237500 -4.375000 135 135 135
0.025000 -0.237500 -4.375000 157 157 157
0.031250 -0.237500 -4.375000 165 165 165
0.037500 -0.237500 -4.375000 170 170 170
0.193750 -0.237500 -4.375000 255 255 255
-0.004314 -0.015294 -0.274510 167 167 167
-0.003922 -0.015294 -0.274510 167 167 167
-0.003529 -0.015294 -0.274510 167 167 167
-0.003137 -0.015294 -0.274510 167 167 167
-0.006250 -0.243750 -4.375000 167 167 167
0.000000 -0.243750 -4.375000 167 167 167
0.006250 -0.243750 -4.375000 167 167 167
0.025000 -0.243750 -4.375000 200 200 200
0.031250 -0.243750 -4.375000 212 212 212
0.037500 -0.243750 -4.375000 217 217 217
0.187500 -0.243750 -4.375000 255 255 255
-0.003922 -0.015686 -0.274510 215 215 215
-0.003529 -0.015686 -0.274510 215 215 215
-0.003137 -0.015686 -0.274510 215 215 215
-0.002745 -0.015686 -0.274510 212 212 212
-0.002353 -0.015686 -0.274510 203 203 203
-0.006250 -0.250000 -4.375000 215 215 215
0.000000 -0.250000 -4.375000 215 215 215
0.006250 -0.250000 -4.375000 215 215 215
0.025000 -0.250000 -4.375000 237 237 237
0.031250 -0.250000 -4.375000 245 245 245
0.037500 -0.250000 -4.375000 248 248 248
0.008627 -0.015686 -0.274510 255 255 255
0.009020 -0.015686 -0.274510 255 255 255
0.175000 -0.250000 -4.375000 255 255 255
0.181250 -0.250000 -4.375000 255 255 255
-0.003137 -0.016078 -0.274510 247 247 247
-0.002745 -0.016078 -0.274510 245 245 245
-0.002353 -0.016078 -0.274510 239 239 239
-0.001961 -0.016078 -0.274510 235 235 235
-0.001569 -0.016078 -0.274510 239 239 239
-0.006250 -0.256250 -4.375000 247 247 247
0.000000 -0.256250 -4.375000 247 247 247
0.006250 -0.256250 -4.375000 247 247 247
0.025000 -0.256250 -4.375000 253 253 253
0.031250 -0.256250 -4.375000 255 255 255
0.037500 -0.256250 -4.375000 255 255 255
0.075000 -0.256250 -4.375000 255 255 255
0.008235 -0.016078 -0.274510 255 255 255
0.008627 -0.016078 -0.274510 255 255 255
0.009020 -0.016078 -0.274510 255 255 255
0.168750 -0.256250 -4.375000 255 255 255
0.175000 -0.256250 -4.375000 255 255 255
-0.002745 -0.016471 -0.274510 255 255 255
-0.002353 -0.016471 -0.274510 253 253 253
-0.001961 -0.016471 -0.274510 252 252 252
-0.001569 -0.016471 -0.274510 253 253 253
-0.001176 -0.016471 -0.274510 255 255 255
0.000000 -0.262500 -4.375000 255 255 255
0.006250 -0.262500 -4.375000 255 255 255
0.025000 -0.262500 -4.375000 255 255 255
0.031250 -0.262500 -4.375000 255 255 255
0.037500 -0.262500 -4.375000 255 255 255
0.075000 -0.262500 -4.375000 255 255 255
0.008235 -0.016471 -0.274510 255 255 255
0.008627 -0.016471 -0.274510 255 255 255
0.162500 -0.262500 -4.375000 255 255 255
-0.002353 -0.016863 -0.274510 255 255 255
-0.001961 -0.016863 -0.274510 255 255 255
-0.001569 -0.016863 -0.274510 255 255 255
-0.001176 -0.016863 -0.274510 255 255 255
-0.000784 -0.016863 -0.274510 255 255 255
0.025000 -0.268750 -4.375000 255 255 255
0.031250 -0.268750 -4.375000 255 255 255
0.037500 -0.268750 -4.375000 255 255 255
0.075000 -0.268750 -4.375000 255 255 255
0.008235 -0.016863 -0.274510 255 255 255
0.150000 -0.268750 -4.375000 255 255 255
0.156250 -0.268750 -4.375000 255 255 255
-0.001961 -0.017255 -0.274510 255 255 255
-0.001569 -0.017255 -0.274510 255 255 255
-0.001176 -0.017255 -0.274510 255 255 255
0.025000 -0.275000 -4.375000 255 255 255
0.031250 -0.275000 -4.375000 255 255 255
0.037500 -0.275000 -4.375000 255 255 255
0.075000 -0.275000 -4.375000 255 255 255
0.081250 -0.275000 -4.375000 255 255 255
0.143750 -0.275000 -4.375000 255 255 255
0.025000 -0.281250 -4.375000 255 255 255
0.031250 -0.281250 -4.375000 255 255 255
0.037500 -0.281250 -4.375000 255 255 255
0.075000 -0.281250 -4.375000 255 255 255
0.081250 -0.281250 -4.375000 255 255 255
0.031250 -0.287500 -4.375000 255 255 255
0.075000 -0.287500 -4.375000 255 255 255
0.054167 -0.191667 -2.916667 255 255 255
0.053846 -0.176923 -2.692308 255 255 255
0.000784 -0.018431 -0.274510 255 255 255
0.001176 -0.018431 -0.274510 255 255 255
0.075000 -0.293750 -4.375000 255 255 255
0.052000 -0.188000 -2.800000 255 255 255
0.093750 -0.293750 -4.375000 255 255 255
0.000784 -0.018824 -0.274510 255 255 255
0.001176 -0.018824 -0.274510 255 255 255
0.001569 -0.018824 -0.274510 255 255 255
0.003529 -0.018824 -0.274510 255 255 255
0.003922 -0.018824 -0.274510 255 255 255
0.004314 -0.018824 -0.274510 255 255 255
0.087500 -0.300000 -4.375000 255 255 255
0.001176 -0.019216 -0.274510 255 255 255
0.001569 -0.019216 -0.274510 255 255 255
0.003529 -0.019216 -0.274510 255 255 255
0.003922 -0.019216 -0.274510 255 255 255
